<svg xmlns="http://www.w3.org/2000/svg" version="1.1" xmlns:xlink="http://www.w3.org/1999/xlink" width="48" height="48"><svg xmlns="http://www.w3.org/2000/svg" version="1.1" xmlns:xlink="http://www.w3.org/1999/xlink" width="48" height="48"><svg width="48" height="48" viewBox="0 0 48 48" fill="none" xmlns="http://www.w3.org/2000/svg">
<g clip-path="url(#clip0_1648_1662)">
<path d="M0 12C0 5.37258 5.37258 0 12 0H36C42.6274 0 48 5.37258 48 12V36C48 42.6274 42.6274 48 36 48H12C5.37258 48 0 42.6274 0 36V12Z" fill="#E3B02F"></path>
<path d="M24.626 25.5396C25.2111 25.9055 25.3894 26.6767 25.0236 27.262L16.8099 40.4068C16.444 40.9917 15.6727 41.1698 15.0874 40.8044L10.4231 37.8899C9.83769 37.524 9.66017 36.752 10.026 36.1666L18.2398 23.0218C18.6057 22.4367 19.3764 22.2593 19.9617 22.625L24.626 25.5396Z" fill="#141414"></path>
<path d="M22.5036 7.69908C22.9961 8.00709 23.1986 8.60212 23.0328 9.13179C23.0965 9.63081 23.5279 10.6102 24.195 11.1731L33.0601 16.7138C33.8583 17.0665 34.9276 17.0249 35.4043 16.8635C35.8078 16.482 36.4311 16.4031 36.924 16.7111L40.5257 18.9617C41.1108 19.3277 41.2891 20.0989 40.9234 20.6842L34.8293 30.4367C34.4634 31.0214 33.692 31.1997 33.1069 30.8344L29.5051 28.5838C29.0766 28.316 28.8677 27.8306 28.9293 27.3603C28.874 27.0473 28.6953 26.5814 28.424 26.1418L17.753 19.4738C17.2388 19.4226 16.7419 19.4663 16.4363 19.5538C16.0407 19.8153 15.5132 19.8393 15.0847 19.5718L11.483 17.3211C10.898 16.9553 10.7207 16.1845 11.0861 15.5992L17.1802 5.84665C17.5461 5.26167 18.3166 5.08307 18.9018 5.44847L22.5036 7.69908Z" fill="#141414"></path>
<path d="M33.2091 13.2152C33.4433 13.3616 33.5145 13.67 33.3682 13.9042L32.8383 14.7523C32.6919 14.9865 32.3835 15.0577 32.1493 14.9113L26.213 11.2019C25.9788 11.0556 25.9076 10.7471 26.0539 10.5129L26.5838 9.66487C26.7301 9.43069 27.0386 9.35947 27.2728 9.5058L33.2091 13.2152Z" fill="#141414"></path>
</g>
<defs>
<clipPath id="clip0_1648_1662">
<rect width="48" height="48" fill="white"></rect>
</clipPath>
</defs>
</svg></svg><style>@media (prefers-color-scheme: light) { :root { filter: none; } }
@media (prefers-color-scheme: dark) { :root { filter: none; } }
</style></svg>