<svg xmlns="http://www.w3.org/2000/svg" version="1.1" xmlns:xlink="http://www.w3.org/1999/xlink" width="48" height="48"><svg xmlns="http://www.w3.org/2000/svg" version="1.1" xmlns:xlink="http://www.w3.org/1999/xlink" width="48" height="48"><svg width="48" height="48" viewBox="0 0 48 48" fill="none" xmlns="http://www.w3.org/2000/svg">
<g clip-path="url(#clip0_1648_1662)">
<path d="M36 0C42.6274 0 48 5.37258 48 12V36C48 42.6274 42.6274 48 36 48H12C5.37258 48 0 42.6274 0 36V12C0 5.37258 5.37258 0 12 0H36ZM19.4961 23.8506C19.0278 23.5581 18.4108 23.7007 18.1182 24.1689L10.0879 37.0205C9.7953 37.4888 9.9372 38.1057 10.4053 38.3984L14.4453 40.9229C14.9137 41.2153 15.5306 41.0728 15.8232 40.6045L23.8545 27.7529C24.1467 27.2847 24.0041 26.6676 23.5361 26.375L19.4961 23.8506ZM18.3008 7.19434C17.7154 6.82885 16.9439 7.00653 16.5781 7.5918L10.2812 17.6689C9.91542 18.2544 10.0942 19.0258 10.6797 19.3916L14.2939 21.6504C14.7298 21.9228 15.2691 21.8934 15.667 21.6191L15.5811 21.7578C15.8173 21.6154 16.3909 21.4916 17.0107 21.5322L27.6631 28.1885C27.9716 28.7282 28.1124 29.2986 28.0879 29.5732L28.1738 29.4346C28.1017 29.9124 28.3122 30.4102 28.748 30.6826L32.3623 32.9414C32.9478 33.3072 33.7201 33.1294 34.0859 32.5439L40.3828 22.4668C40.7486 21.8814 40.5697 21.11 39.9844 20.7441L36.3691 18.4854C35.8387 18.1539 35.1565 18.2694 34.7607 18.7295L34.8838 18.5332C34.5224 18.7513 33.3688 18.9241 32.4707 18.5312L23.583 12.9775C22.8363 12.3425 22.4868 11.2299 22.5244 10.8096L22.4014 11.0059C22.6412 10.4486 22.4464 9.78456 21.916 9.45312L18.3008 7.19434ZM26.5537 11.6123C26.3196 11.4662 26.0116 11.5375 25.8652 11.7715L25.2568 12.7451C25.1108 12.9792 25.182 13.2883 25.416 13.4346L30.8408 16.8242C31.0748 16.9701 31.3839 16.8988 31.5303 16.665L32.1387 15.6914C32.2847 15.4574 32.2132 15.1483 31.9795 15.002L26.5537 11.6123Z" fill="#E3B02F"></path>
</g>
<defs>
<clipPath id="clip0_1648_1662">
<rect width="48" height="48" fill="white"></rect>
</clipPath>
</defs>
</svg></svg><style>@media (prefers-color-scheme: light) { :root { filter: none; } }
@media (prefers-color-scheme: dark) { :root { filter: none; } }
</style></svg>