<svg width="24" height="24" viewBox="0 0 24 24" fill="none" xmlns="http://www.w3.org/2000/svg">
<path d="M3 16V13H2C1.71667 13 1.47934 12.904 1.288 12.712C1.09667 12.52 1.00067 12.2827 1 12C0.999337 11.7173 1.09534 11.48 1.288 11.288C1.48067 11.096 1.718 11 2 11H3V8C3 7.16667 3.29167 6.45834 3.875 5.875C4.45834 5.29167 5.16667 5 6 5H7C7 4.71667 7.096 4.47934 7.288 4.288C7.48 4.09667 7.71734 4.00067 8 4C8.28267 3.99934 8.52034 4.09534 8.713 4.288C8.90567 4.48067 9.00134 4.718 9 5V19C9 19.2833 8.904 19.521 8.712 19.713C8.52 19.905 8.28267 20.0007 8 20C7.71734 19.9993 7.48 19.9033 7.288 19.712C7.096 19.5207 7 19.2833 7 19H6C5.16667 19 4.45834 18.7083 3.875 18.125C3.29167 17.5417 3 16.8333 3 16ZM6 17H7V7H6C5.71667 7 5.47934 7.096 5.288 7.288C5.09667 7.48 5.00067 7.71734 5 8V16C5 16.2833 5.096 16.521 5.288 16.713C5.48 16.905 5.71734 17.0007 6 17ZM21 16C21 16.8333 20.7083 17.5417 20.125 18.125C19.5417 18.7083 18.8333 19 18 19H17C17 19.2833 16.904 19.521 16.712 19.713C16.52 19.905 16.2827 20.0007 16 20C15.7173 19.9993 15.48 19.9033 15.288 19.712C15.096 19.5207 15 19.2833 15 19V16H12C11.7167 16 11.4793 15.904 11.288 15.712C11.0967 15.52 11.0007 15.2827 11 15C10.9993 14.7173 11.0953 14.48 11.288 14.288C11.4807 14.096 11.718 14 12 14H15V10H12C11.7167 10 11.4793 9.904 11.288 9.712C11.0967 9.52 11.0007 9.28267 11 9C10.9993 8.71734 11.0953 8.48 11.288 8.288C11.4807 8.096 11.718 8 12 8H15V5C15 4.71667 15.096 4.47934 15.288 4.288C15.48 4.09667 15.7173 4.00067 16 4C16.2827 3.99934 16.5203 4.09534 16.713 4.288C16.9057 4.48067 17.0013 4.718 17 5H18C18.8333 5 19.5417 5.29167 20.125 5.875C20.7083 6.45834 21 7.16667 21 8V11H22C22.2833 11 22.521 11.096 22.713 11.288C22.905 11.48 23.0007 11.7173 23 12C22.9993 12.2827 22.9033 12.5203 22.712 12.713C22.5207 12.9057 22.2833 13.0013 22 13H21V16ZM17 17H18C18.2833 17 18.521 16.904 18.713 16.712C18.905 16.52 19.0007 16.2827 19 16V8C19 7.71667 18.904 7.47934 18.712 7.288C18.52 7.09667 18.2827 7.00067 18 7H17V17Z" fill="black"/>
</svg>
