<svg width="24" height="24" viewBox="0 0 24 24" fill="none" xmlns="http://www.w3.org/2000/svg" shape-rendering="crispEdges" image-rendering="crisp-edges" preserveAspectRatio="xMidYMid meet">
<path d="M2 5V3C2 2.45 2.196 1.97933 2.588 1.588C2.98 1.19667 3.45067 1.00067 4 1H6C6.28333 1 6.521 1.096 6.713 1.288C6.905 1.48 7.00067 1.71733 7 2C6.99933 2.28267 6.90333 2.52033 6.712 2.713C6.52067 2.90567 6.28333 3.00133 6 3H4V5C4 5.28333 3.904 5.521 3.712 5.713C3.52 5.905 3.28267 6.00067 3 6C2.71733 5.99933 2.48 5.90333 2.288 5.712C2.096 5.52067 2 5.28333 2 5ZM20 5V3H18C17.7167 3 17.4793 2.904 17.288 2.712C17.0967 2.52 17.0007 2.28267 17 2C16.9993 1.71733 17.0953 1.48 17.288 1.288C17.4807 1.096 17.718 1 18 1H20C20.55 1 21.021 1.196 21.413 1.588C21.805 1.98 22.0007 2.45067 22 3V5C22 5.28333 21.904 5.521 21.712 5.713C21.52 5.905 21.2827 6.00067 21 6C20.7173 5.99933 20.48 5.90333 20.288 5.712C20.096 5.52067 20 5.28333 20 5ZM2 21V19C2 18.7167 2.096 18.4793 2.288 18.288C2.48 18.0967 2.71733 18.0007 3 18C3.28267 17.9993 3.52033 18.0953 3.713 18.288C3.90567 18.4807 4.00133 18.718 4 19V21H6C6.28333 21 6.521 21.096 6.713 21.288C6.905 21.48 7.00067 21.7173 7 22C6.99933 22.2827 6.90333 22.5203 6.712 22.713C6.52067 22.9057 6.28333 23.0013 6 23H4C3.45 23 2.97933 22.8043 2.588 22.413C2.19667 22.0217 2.00067 21.5507 2 21ZM20 23H18C17.7167 23 17.4793 22.904 17.288 22.712C17.0967 22.52 17.0007 22.2827 17 22C16.9993 21.7173 17.0953 21.48 17.288 21.288C17.4807 21.096 17.718 21 18 21H20V19C20 18.7167 20.096 18.4793 20.288 18.288C20.48 18.0967 20.7173 18.0007 21 18C21.2827 17.9993 21.5203 18.0953 21.713 18.288C21.9057 18.4807 22.0013 18.718 22 19V21C22 21.55 21.8043 22.021 21.413 22.413C21.0217 22.805 20.5507 23.0007 20 23ZM7 18H17V6H7V18ZM7 20C6.45 20 5.97933 19.8043 5.588 19.413C5.19667 19.0217 5.00067 18.5507 5 18V6C5 5.45 5.196 4.97933 5.588 4.588C5.98 4.19667 6.45067 4.00067 7 4H17C17.55 4 18.021 4.196 18.413 4.588C18.805 4.98 19.0007 5.45067 19 6V18C19 18.55 18.8043 19.021 18.413 19.413C18.0217 19.805 17.5507 20.0007 17 20H7ZM10 10H14C14.2833 10 14.521 9.904 14.713 9.712C14.905 9.52 15.0007 9.28267 15 9C14.9993 8.71733 14.9033 8.48 14.712 8.288C14.5207 8.096 14.2833 8 14 8H10C9.71667 8 9.47933 8.096 9.288 8.288C9.09667 8.48 9.00067 8.71733 9 9C8.99933 9.28267 9.09533 9.52033 9.288 9.713C9.48067 9.90567 9.718 10.0013 10 10ZM10 13H14C14.2833 13 14.521 12.904 14.713 12.712C14.905 12.52 15.0007 12.2827 15 12C14.9993 11.7173 14.9033 11.48 14.712 11.288C14.5207 11.096 14.2833 11 14 11H10C9.71667 11 9.47933 11.096 9.288 11.288C9.09667 11.48 9.00067 11.7173 9 12C8.99933 12.2827 9.09533 12.5203 9.288 12.713C9.48067 12.9057 9.718 13.0013 10 13ZM10 16H14C14.2833 16 14.521 15.904 14.713 15.712C14.905 15.52 15.0007 15.2827 15 15C14.9993 14.7173 14.9033 14.48 14.712 14.288C14.5207 14.096 14.2833 14 14 14H10C9.71667 14 9.47933 14.096 9.288 14.288C9.09667 14.48 9.00067 14.7173 9 15C8.99933 15.2827 9.09533 15.5203 9.288 15.713C9.48067 15.9057 9.718 16.0013 10 16Z" fill="black"/>
</svg>
