<svg width="139" height="48" viewBox="0 0 139 48" fill="none" xmlns="http://www.w3.org/2000/svg">
<g clip-path="url(#clip0_1648_1661)">
<path d="M0 12C0 5.37258 5.37258 0 12 0H36C42.6274 0 48 5.37258 48 12V36C48 42.6274 42.6274 48 36 48H12C5.37258 48 0 42.6274 0 36V12Z" fill="#E3B02F"/>
<path d="M24.626 25.5396C25.2111 25.9055 25.3894 26.6767 25.0236 27.262L16.8099 40.4068C16.444 40.9917 15.6727 41.1698 15.0874 40.8044L10.4231 37.8899C9.83769 37.524 9.66017 36.752 10.026 36.1666L18.2398 23.0218C18.6057 22.4367 19.3764 22.2593 19.9617 22.625L24.626 25.5396Z" fill="#141414"/>
<path d="M22.5036 7.69908C22.9961 8.00709 23.1986 8.60212 23.0328 9.13179C23.0965 9.63081 23.5279 10.6102 24.195 11.1731L33.0601 16.7138C33.8583 17.0665 34.9276 17.0249 35.4043 16.8635C35.8078 16.482 36.4311 16.4031 36.924 16.7111L40.5257 18.9617C41.1108 19.3277 41.2891 20.0989 40.9234 20.6842L34.8293 30.4367C34.4634 31.0214 33.692 31.1997 33.1069 30.8344L29.5051 28.5838C29.0766 28.316 28.8677 27.8306 28.9293 27.3603C28.874 27.0473 28.6953 26.5814 28.424 26.1418L17.753 19.4738C17.2388 19.4226 16.7419 19.4663 16.4363 19.5538C16.0407 19.8153 15.5132 19.8393 15.0847 19.5718L11.483 17.3211C10.898 16.9553 10.7207 16.1845 11.0861 15.5992L17.1802 5.84665C17.5461 5.26167 18.3166 5.08307 18.9018 5.44847L22.5036 7.69908Z" fill="#141414"/>
<path d="M33.2091 13.2152C33.4433 13.3616 33.5145 13.67 33.3682 13.9042L32.8383 14.7523C32.6919 14.9865 32.3835 15.0577 32.1493 14.9113L26.213 11.2019C25.9788 11.0556 25.9076 10.7471 26.0539 10.5129L26.5838 9.66487C26.7301 9.43069 27.0386 9.35947 27.2728 9.5058L33.2091 13.2152Z" fill="#141414"/>
</g>
<path d="M127.074 15.1601H137.19V18.3041H130.65V21.5321H137.13V24.5801H130.65V27.8561H137.19V31.0001H127.074V15.1601Z" fill="white"/>
<path d="M116.938 22.1441H125.014V23.1521C125.014 24.2881 124.822 25.3481 124.438 26.3321C124.062 27.3161 123.522 28.1801 122.818 28.9241C122.114 29.6681 121.274 30.2481 120.298 30.6641C119.322 31.0801 118.242 31.2881 117.058 31.2881C115.834 31.2881 114.722 31.0801 113.722 30.6641C112.73 30.2401 111.874 29.6521 111.154 28.9001C110.434 28.1481 109.882 27.2761 109.498 26.2841C109.114 25.2841 108.922 24.2121 108.922 23.0681C108.922 21.9321 109.114 20.8681 109.498 19.8761C109.882 18.8761 110.434 18.0041 111.154 17.2601C111.874 16.5081 112.73 15.9241 113.722 15.5081C114.722 15.0841 115.834 14.8721 117.058 14.8721C118.058 14.8721 118.938 14.9801 119.698 15.1961C120.466 15.4121 121.126 15.7001 121.678 16.0601C122.23 16.4201 122.698 16.8161 123.082 17.2481C123.466 17.6721 123.786 18.0881 124.042 18.4961L120.634 20.1041C120.306 19.6001 119.858 19.1601 119.29 18.7841C118.73 18.4081 117.986 18.2201 117.058 18.2201C116.41 18.2201 115.814 18.3481 115.27 18.6041C114.734 18.8601 114.27 19.2121 113.878 19.6601C113.486 20.1001 113.182 20.6161 112.966 21.2081C112.758 21.7921 112.654 22.4121 112.654 23.0681C112.654 23.7321 112.758 24.3561 112.966 24.9401C113.182 25.5241 113.486 26.0401 113.878 26.4881C114.27 26.9361 114.734 27.2881 115.27 27.5441C115.814 27.7921 116.41 27.9161 117.058 27.9161C117.626 27.9161 118.142 27.8441 118.606 27.7001C119.07 27.5561 119.47 27.3481 119.806 27.0761C120.15 26.8041 120.418 26.4841 120.61 26.1161C120.81 25.7401 120.93 25.3281 120.97 24.8801H116.938V22.1441Z" fill="white"/>
<path d="M95.0476 15.1601H99.8116C101.5 15.1601 102.896 15.5001 104 16.1801C105.112 16.8521 105.944 17.7841 106.496 18.9761C107.048 20.1681 107.324 21.5321 107.324 23.0681C107.324 24.6121 107.048 25.9801 106.496 27.1721C105.944 28.3641 105.112 29.3001 104 29.9801C102.896 30.6601 101.5 31.0001 99.8116 31.0001H95.0476V15.1601ZM98.6236 18.3401V27.8201H99.4876C100.392 27.8201 101.14 27.6161 101.732 27.2081C102.324 26.7921 102.768 26.2281 103.064 25.5161C103.368 24.7961 103.52 23.9881 103.52 23.0921C103.52 22.1881 103.372 21.3801 103.076 20.6681C102.788 19.9481 102.344 19.3801 101.744 18.9641C101.144 18.5481 100.392 18.3401 99.4876 18.3401H98.6236Z" fill="white"/>
<path d="M82.1913 15.1601H92.3073V18.3041H85.7673V21.5321H92.2473V24.5801H85.7673V27.8561H92.3073V31.0001H82.1913V15.1601Z" fill="white"/>
<path d="M70.5216 15.1601H74.1096V27.8561H79.8576V31.0001H70.5216V15.1601Z" fill="white"/>
<path d="M62.7679 14.8721C63.7519 14.8721 64.6119 14.9801 65.3479 15.1961C66.0839 15.4121 66.6759 15.6401 67.1239 15.8801C67.5719 16.1201 67.8439 16.2801 67.9399 16.3601L66.2119 19.2521C66.0839 19.1561 65.8639 19.0161 65.5519 18.8321C65.2479 18.6481 64.8839 18.4841 64.4599 18.3401C64.0439 18.1961 63.6079 18.1241 63.1519 18.1241C62.5359 18.1241 62.0359 18.2361 61.6519 18.4601C61.2759 18.6761 61.0879 19.0001 61.0879 19.4321C61.0879 19.7281 61.1879 19.9961 61.3879 20.2361C61.5959 20.4681 61.9079 20.6921 62.3239 20.9081C62.7479 21.1161 63.2839 21.3441 63.9319 21.5921C64.5239 21.8081 65.0799 22.0641 65.5999 22.3601C66.1199 22.6561 66.5759 23.0081 66.9679 23.4161C67.3679 23.8161 67.6839 24.2801 67.9159 24.8081C68.1479 25.3361 68.2639 25.9361 68.2639 26.6081C68.2639 27.4081 68.0999 28.1041 67.7719 28.6961C67.4439 29.2801 66.9959 29.7641 66.4279 30.1481C65.8679 30.5321 65.2279 30.8161 64.5079 31.0001C63.7959 31.1921 63.0559 31.2881 62.2879 31.2881C61.1999 31.2881 60.2239 31.1641 59.3599 30.9161C58.5039 30.6681 57.8119 30.4001 57.2839 30.1121C56.7559 29.8241 56.4399 29.6321 56.3359 29.5361L58.1239 26.5241C58.2199 26.5961 58.4039 26.7121 58.6759 26.8721C58.9559 27.0321 59.2959 27.2001 59.6959 27.3761C60.0959 27.5441 60.5199 27.6881 60.9679 27.8081C61.4239 27.9281 61.8719 27.9881 62.3119 27.9881C63.0479 27.9881 63.5999 27.8481 63.9679 27.5681C64.3359 27.2801 64.5199 26.9041 64.5199 26.4401C64.5199 26.0961 64.4039 25.7881 64.1719 25.5161C63.9399 25.2441 63.5919 24.9881 63.1279 24.7481C62.6639 24.5001 62.0839 24.2401 61.3879 23.9681C60.6919 23.6881 60.0399 23.3481 59.4319 22.9481C58.8319 22.5481 58.3439 22.0481 57.9679 21.4481C57.5919 20.8481 57.4039 20.1041 57.4039 19.2161C57.4039 18.3281 57.6519 17.5601 58.1479 16.9121C58.6519 16.2561 59.3119 15.7521 60.1279 15.4001C60.9519 15.0481 61.8319 14.8721 62.7679 14.8721Z" fill="white"/>
<defs>
<clipPath id="clip0_1648_1661">
<rect width="48" height="48" fill="white"/>
</clipPath>
</defs>
</svg>
