<svg width="190" height="64" viewBox="0 0 190 64" fill="none" xmlns="http://www.w3.org/2000/svg" shape-rendering="crispEdges" image-rendering="crisp-edges" preserveAspectRatio="xMidYMid meet">
<g clip-path="url(#clip0_272_1403)">
<path fill-rule="evenodd" clip-rule="evenodd" d="M189.999 33.0599C189.999 22.2095 183.455 13.6479 170.946 13.6479C158.385 13.6479 150.785 22.2095 150.785 32.9751C150.785 45.7326 159.757 52.175 172.635 52.175C178.916 52.175 183.666 51.0306 187.255 49.42V40.9433C183.666 42.3843 179.549 43.2744 174.324 43.2744C169.205 43.2744 164.666 41.8334 164.085 36.8321H189.893C189.893 36.2811 189.999 34.0771 189.999 33.0599ZM163.927 29.0334C163.927 24.244 167.568 22.2519 170.893 22.2519C174.113 22.2519 177.543 24.244 177.543 29.0334H163.927Z" fill="white"/>
<path fill-rule="evenodd" clip-rule="evenodd" d="M130.413 13.6479C125.241 13.6479 121.916 15.5976 120.069 16.9539L119.383 14.3261H107.771V63.7459L120.966 61.4995L121.019 49.5048C122.919 50.6068 125.716 52.175 130.36 52.175C139.808 52.175 148.41 46.0717 148.41 32.636C148.358 20.3446 139.649 13.6479 130.413 13.6479ZM127.246 42.8505C124.133 42.8505 122.285 41.9605 121.019 40.8585L120.966 25.134C122.338 23.9049 124.238 23.0572 127.246 23.0572C132.049 23.0572 135.374 27.3804 135.374 32.9327C135.374 38.6122 132.102 42.8505 127.246 42.8505Z" fill="white"/>
<path fill-rule="evenodd" clip-rule="evenodd" d="M89.6172 11.1471L102.864 8.85837V0.254395L89.6172 2.50075V11.1471Z" fill="white"/>
<path d="M102.864 14.3682H89.6172V51.4542H102.864V14.3682Z" fill="white"/>
<path fill-rule="evenodd" clip-rule="evenodd" d="M75.4202 17.5047L74.5758 14.3683H63.1758V51.4543H76.3702V26.3206C79.4841 23.057 84.7619 23.6504 86.398 24.1166V14.3683C84.7091 13.8597 78.5341 12.9272 75.4202 17.5047Z" fill="white"/>
<path fill-rule="evenodd" clip-rule="evenodd" d="M49.0302 5.1709L36.1524 7.37487L36.0996 41.3245C36.0996 47.5973 41.9579 52.2172 49.7691 52.2172C54.0969 52.2172 57.2636 51.5814 59.0052 50.8185V42.2146C57.3163 42.7655 48.9774 44.7152 48.9774 38.4424V23.3961H59.0052V14.3682H48.9774L49.0302 5.1709Z" fill="white"/>
<path fill-rule="evenodd" clip-rule="evenodd" d="M13.3528 25.1338C13.3528 23.4808 15.0417 22.8451 17.8389 22.8451C21.85 22.8451 26.9167 23.8199 30.9278 25.5576V15.5974C26.5472 14.1987 22.2194 13.6477 17.8389 13.6477C7.125 13.6477 0 18.1404 0 25.6424C0 37.3404 20.0556 35.4755 20.0556 40.5192C20.0556 42.4688 17.9444 43.1046 14.9889 43.1046C10.6083 43.1046 5.01389 41.6636 0.580556 39.7139V49.8013C5.48889 51.4966 10.45 52.2172 14.9889 52.2172C25.9667 52.2172 33.5139 47.8516 33.5139 40.2649C33.4611 27.6345 13.3528 29.8808 13.3528 25.1338Z" fill="white"/>
</g>
<defs>
<clipPath id="clip0_272_1403">
<rect width="190" height="64" fill="white"/>
</clipPath>
</defs>
</svg>
