<svg width="48" height="48" viewBox="0 0 48 48" fill="none" xmlns="http://www.w3.org/2000/svg" shape-rendering="crispEdges" image-rendering="crisp-edges" preserveAspectRatio="xMidYMid meet">
<path d="M14.4 48C10.3556 48 6.944 46.6116 4.16533 43.8347C1.38667 41.0578 -0.00177607 37.6462 1.70503e-06 33.6C1.70503e-06 31.9111 0.288891 30.2667 0.866668 28.6667C1.44445 27.0667 2.26667 25.6222 3.33333 24.3333L12.8 12.9333L6.33334 0H41.6667L35.2 12.9333L44.6667 24.3333C45.7333 25.6222 46.5556 27.0667 47.1333 28.6667C47.7111 30.2667 48 31.9111 48 33.6C48 37.6444 46.6 41.056 43.8 43.8347C41 46.6133 37.6 48.0018 33.6 48H14.4ZM24 34.6667C22.5333 34.6667 21.2782 34.1449 20.2347 33.1013C19.1911 32.0578 18.6684 30.8018 18.6667 29.3333C18.6649 27.8649 19.1876 26.6098 20.2347 25.568C21.2818 24.5262 22.5369 24.0036 24 24C25.4631 23.9964 26.7191 24.5191 27.768 25.568C28.8169 26.6169 29.3387 27.872 29.3333 29.3333C29.328 30.7947 28.8062 32.0507 27.768 33.1013C26.7298 34.152 25.4738 34.6738 24 34.6667ZM17.6667 10.6667H30.3333L33 5.33333H15L17.6667 10.6667ZM14.4 42.6667H33.6C36.1333 42.6667 38.2782 41.7893 40.0347 40.0347C41.7911 38.28 42.6684 36.1351 42.6667 33.6C42.6667 32.5333 42.4773 31.5004 42.0987 30.5013C41.72 29.5022 41.1982 28.6018 40.5333 27.8L30.7333 16H17.3333L7.46667 27.7333C6.8 28.5333 6.27822 29.4444 5.90133 30.4667C5.52445 31.4889 5.33511 32.5333 5.33334 33.6C5.33334 36.1333 6.21156 38.2782 7.968 40.0347C9.72445 41.7911 11.8684 42.6684 14.4 42.6667Z" fill="#E3B02F"/>
</svg>
