<svg width="64" height="64" viewBox="0 0 64 64" fill="none" xmlns="http://www.w3.org/2000/svg">
<path d="M21.3346 53.3335H42.668V45.3335C42.668 42.4002 41.6235 39.889 39.5346 37.8002C37.4457 35.7113 34.9346 34.6668 32.0013 34.6668C29.068 34.6668 26.5569 35.7113 24.468 37.8002C22.3791 39.889 21.3346 42.4002 21.3346 45.3335V53.3335ZM32.0013 29.3335C34.9346 29.3335 37.4457 28.289 39.5346 26.2002C41.6235 24.1113 42.668 21.6002 42.668 18.6668V10.6668H21.3346V18.6668C21.3346 21.6002 22.3791 24.1113 24.468 26.2002C26.5569 28.289 29.068 29.3335 32.0013 29.3335ZM10.668 58.6668V53.3335H16.0013V45.3335C16.0013 42.6224 16.6351 40.0775 17.9026 37.6988C19.1702 35.3202 20.9364 33.4206 23.2013 32.0002C20.9346 30.5779 19.1684 28.6784 17.9026 26.3015C16.6369 23.9246 16.0031 21.3797 16.0013 18.6668V10.6668H10.668V5.3335H53.3346V10.6668H48.0013V18.6668C48.0013 21.3779 47.3684 23.9228 46.1026 26.3015C44.8369 28.6802 43.0697 30.5797 40.8013 32.0002C43.068 33.4224 44.8351 35.3228 46.1026 37.7015C47.3702 40.0802 48.0031 42.6242 48.0013 45.3335V53.3335H53.3346V58.6668H10.668Z" fill="#FFAB3C"/>
</svg>
