<svg width="64" height="64" viewBox="0 0 64 64" fill="none" xmlns="http://www.w3.org/2000/svg">
<path d="M22.4 56C18.3556 56 14.944 54.6116 12.1653 51.8347C9.38667 49.0578 7.99822 45.6462 8 41.6C8 39.9111 8.28889 38.2667 8.86667 36.6667C9.44445 35.0667 10.2667 33.6222 11.3333 32.3333L20.8 20.9333L14.3333 8H49.6667L43.2 20.9333L52.6667 32.3333C53.7333 33.6222 54.5556 35.0667 55.1333 36.6667C55.7111 38.2667 56 39.9111 56 41.6C56 45.6444 54.6 49.056 51.8 51.8347C49 54.6133 45.6 56.0018 41.6 56H22.4ZM32 42.6667C30.5333 42.6667 29.2782 42.1449 28.2347 41.1013C27.1911 40.0578 26.6684 38.8018 26.6667 37.3333C26.6649 35.8649 27.1876 34.6098 28.2347 33.568C29.2818 32.5262 30.5369 32.0036 32 32C33.4631 31.9964 34.7191 32.5191 35.768 33.568C36.8169 34.6169 37.3387 35.872 37.3333 37.3333C37.328 38.7947 36.8062 40.0507 35.768 41.1013C34.7298 42.152 33.4738 42.6738 32 42.6667ZM25.6667 18.6667H38.3333L41 13.3333H23L25.6667 18.6667ZM22.4 50.6667H41.6C44.1333 50.6667 46.2782 49.7893 48.0347 48.0347C49.7911 46.28 50.6684 44.1351 50.6667 41.6C50.6667 40.5333 50.4773 39.5004 50.0987 38.5013C49.72 37.5022 49.1982 36.6018 48.5333 35.8L38.7333 24H25.3333L15.4667 35.7333C14.8 36.5333 14.2782 37.4444 13.9013 38.4667C13.5244 39.4889 13.3351 40.5333 13.3333 41.6C13.3333 44.1333 14.2116 46.2782 15.968 48.0347C17.7244 49.7911 19.8684 50.6684 22.4 50.6667Z" fill="#FFAB3C"/>
</svg>
